<svg width="24" height="24" viewBox="0 0 24 24" fill="none" xmlns="http://www.w3.org/2000/svg">
<path d="M16 6.11111V6.61111H16.5H20.6429C20.7201 6.61111 20.8102 6.64937 20.8829 6.72485C20.9569 6.80157 21 6.91812 21 7.02222V19.1111C21 19.3412 20.8212 19.5 20.6429 19.5H3.35714C3.17884 19.5 3 19.3412 3 19.1111V7.04444C3 6.76774 3.20182 6.61111 3.35714 6.61111H7.5H8V6.11111V5.71111C8 3.36524 9.8548 1.5 11.9571 1.5H12.0429C14.1452 1.5 16 3.36524 16 5.71111V6.11111ZM14.7857 6.61111H15.2857V6.11111V5.71111C15.2857 3.83766 13.8004 2.27778 12.0429 2.27778H11.9571C10.1996 2.27778 8.71429 3.83766 8.71429 5.71111V6.11111V6.61111H9.21429H14.7857ZM19.7857 18.7222H20.2857V18.2222V7.88889V7.38889H19.7857H16.5H16V7.88889V9.42222C16 9.65226 15.8212 9.81111 15.6429 9.81111C15.4646 9.81111 15.2857 9.65227 15.2857 9.42222V7.88889V7.38889H14.7857H9.21429H8.71429V7.88889V9.42222C8.71429 9.65226 8.53545 9.81111 8.35714 9.81111C8.17884 9.81111 8 9.65227 8 9.42222V7.88889V7.38889H7.5H4.21429H3.71429V7.88889V18.2222V18.7222H4.21429H19.7857Z" fill="#332C2A" stroke="#332C2A"/>
</svg>
