<svg width="131" height="18" viewBox="0 0 131 18" fill="none" xmlns="http://www.w3.org/2000/svg">
<path d="M0.51975 10.9146C0.51975 9.65853 0.743531 8.56128 1.19109 7.62284C1.65309 6.68441 2.28113 5.96253 3.07519 5.45722C3.86925 4.95191 4.74994 4.69925 5.71725 4.69925C6.49688 4.69925 7.18988 4.86528 7.79625 5.19734C8.41706 5.51497 8.90072 5.95531 9.24722 6.51837V0.974375H13.5135V17H9.24722V15.3108C8.91516 15.8739 8.44594 16.3214 7.83956 16.6535C7.23319 16.9856 6.51853 17.1516 5.69559 17.1516C4.72828 17.1516 3.84759 16.8989 3.05353 16.3936C2.27391 15.8883 1.65309 15.1664 1.19109 14.228C0.743531 13.2751 0.51975 12.1707 0.51975 10.9146ZM9.26888 10.9146C9.26888 10.135 9.05231 9.52137 8.61919 9.07381C8.2005 8.62625 7.68075 8.40247 7.05994 8.40247C6.42469 8.40247 5.89772 8.62625 5.47903 9.07381C5.06034 9.50694 4.851 10.1205 4.851 10.9146C4.851 11.6942 5.06034 12.315 5.47903 12.777C5.89772 13.2246 6.42469 13.4484 7.05994 13.4484C7.68075 13.4484 8.2005 13.2246 8.61919 12.777C9.05231 12.3295 9.26888 11.7087 9.26888 10.9146ZM15.2392 10.9146C15.2392 9.65853 15.463 8.56128 15.9106 7.62284C16.3726 6.68441 16.9934 5.96253 17.773 5.45722C18.5671 4.95191 19.4478 4.69925 20.4151 4.69925C21.2525 4.69925 21.9743 4.86528 22.5807 5.19734C23.1871 5.52941 23.6563 5.97697 23.9884 6.54003V4.85084H28.233V17H23.9884V15.3108C23.6563 15.8739 23.1799 16.3214 22.559 16.6535C21.9527 16.9856 21.238 17.1516 20.4151 17.1516C19.4478 17.1516 18.5671 16.8989 17.773 16.3936C16.9934 15.8883 16.3726 15.1664 15.9106 14.228C15.463 13.2751 15.2392 12.1707 15.2392 10.9146ZM23.9884 10.9146C23.9884 10.135 23.7718 9.52137 23.3387 9.07381C22.92 8.62625 22.4002 8.40247 21.7794 8.40247C21.1442 8.40247 20.6172 8.62625 20.1985 9.07381C19.7798 9.50694 19.5705 10.1205 19.5705 10.9146C19.5705 11.6942 19.7798 12.315 20.1985 12.777C20.6172 13.2246 21.1442 13.4484 21.7794 13.4484C22.4002 13.4484 22.92 13.2246 23.3387 12.777C23.7718 12.3295 23.9884 11.7087 23.9884 10.9146ZM41.0034 1.73234V5.11072H34.8963V7.79609H39.4008V11.0229H34.8963V17H30.6517V1.73234H41.0034ZM42.0981 10.9146C42.0981 9.65853 42.3218 8.56128 42.7694 7.62284C43.2314 6.68441 43.8522 5.96253 44.6318 5.45722C45.4259 4.95191 46.3066 4.69925 47.2739 4.69925C48.1113 4.69925 48.8332 4.86528 49.4395 5.19734C50.0459 5.52941 50.5151 5.97697 50.8472 6.54003V4.85084H55.0918V17H50.8472V15.3108C50.5151 15.8739 50.0387 16.3214 49.4179 16.6535C48.8115 16.9856 48.0968 17.1516 47.2739 17.1516C46.3066 17.1516 45.4259 16.8989 44.6318 16.3936C43.8522 15.8883 43.2314 15.1664 42.7694 14.228C42.3218 13.2751 42.0981 12.1707 42.0981 10.9146ZM50.8472 10.9146C50.8472 10.135 50.6306 9.52137 50.1975 9.07381C49.7788 8.62625 49.2591 8.40247 48.6382 8.40247C48.003 8.40247 47.476 8.62625 47.0573 9.07381C46.6387 9.50694 46.4293 10.1205 46.4293 10.9146C46.4293 11.6942 46.6387 12.315 47.0573 12.777C47.476 13.2246 48.003 13.4484 48.6382 13.4484C49.2591 13.4484 49.7788 13.2246 50.1975 12.777C50.6306 12.3295 50.8472 11.7087 50.8472 10.9146ZM61.5386 13.47H66.7144V17H56.8609V13.6433L61.6902 8.38081H56.9042V4.85084H66.5412V8.20756L61.5386 13.47ZM80.0945 10.7847C80.0945 11.1167 80.0728 11.4488 80.0295 11.7808H71.995C72.0383 12.445 72.2188 12.9431 72.5364 13.2751C72.8685 13.5927 73.2872 13.7516 73.7925 13.7516C74.4999 13.7516 75.0052 13.4339 75.3084 12.7987H79.8346C79.6469 13.6361 79.2787 14.3868 78.7301 15.0509C78.1959 15.7006 77.5174 16.2132 76.6944 16.5885C75.8715 16.9639 74.9619 17.1516 73.9657 17.1516C72.7674 17.1516 71.6991 16.8989 70.7606 16.3936C69.8366 15.8883 69.1075 15.1664 68.5733 14.228C68.0536 13.2896 67.7937 12.1851 67.7937 10.9146C67.7937 9.64409 68.0536 8.54684 68.5733 7.62284C69.0931 6.68441 69.815 5.96253 70.739 5.45722C71.6774 4.95191 72.753 4.69925 73.9657 4.69925C75.1641 4.69925 76.2252 4.94469 77.1492 5.43556C78.0732 5.92644 78.7951 6.63387 79.3148 7.55787C79.8346 8.46744 80.0945 9.54303 80.0945 10.7847ZM75.7632 9.7235C75.7632 9.20375 75.59 8.7995 75.2435 8.51075C74.897 8.20756 74.4638 8.05597 73.9441 8.05597C73.4243 8.05597 72.9984 8.20034 72.6664 8.48909C72.3343 8.76341 72.1177 9.17487 72.0167 9.7235H75.7632ZM89.7794 4.74256C91.1798 4.74256 92.2915 5.21178 93.1144 6.15022C93.9374 7.07422 94.3488 8.33028 94.3488 9.91841V17H90.1042V10.4815C90.1042 9.78847 89.9237 9.24706 89.5628 8.85725C89.2019 8.453 88.7182 8.25087 88.1118 8.25087C87.4766 8.25087 86.9785 8.453 86.6176 8.85725C86.2566 9.24706 86.0761 9.78847 86.0761 10.4815V17H81.8315V4.85084H86.0761V6.58334C86.4515 6.03472 86.9568 5.59437 87.5921 5.26231C88.2273 4.91581 88.9564 4.74256 89.7794 4.74256ZM95.9849 10.9146C95.9849 9.65853 96.2087 8.56128 96.6562 7.62284C97.1182 6.68441 97.7463 5.96253 98.5403 5.45722C99.3344 4.95191 100.215 4.69925 101.182 4.69925C101.962 4.69925 102.655 4.86528 103.261 5.19734C103.882 5.51497 104.366 5.95531 104.712 6.51837V0.974375H108.979V17H104.712V15.3108C104.38 15.8739 103.911 16.3214 103.305 16.6535C102.698 16.9856 101.984 17.1516 101.161 17.1516C100.193 17.1516 99.3127 16.8989 98.5187 16.3936C97.7391 15.8883 97.1182 15.1664 96.6562 14.228C96.2087 13.2751 95.9849 12.1707 95.9849 10.9146ZM104.734 10.9146C104.734 10.135 104.517 9.52137 104.084 9.07381C103.666 8.62625 103.146 8.40247 102.525 8.40247C101.89 8.40247 101.363 8.62625 100.944 9.07381C100.525 9.50694 100.316 10.1205 100.316 10.9146C100.316 11.6942 100.525 12.315 100.944 12.777C101.363 13.2246 101.89 13.4484 102.525 13.4484C103.146 13.4484 103.666 13.2246 104.084 12.777C104.517 12.3295 104.734 11.7087 104.734 10.9146ZM110.704 10.9146C110.704 9.65853 110.928 8.56128 111.376 7.62284C111.838 6.68441 112.459 5.96253 113.238 5.45722C114.032 4.95191 114.913 4.69925 115.88 4.69925C116.718 4.69925 117.439 4.86528 118.046 5.19734C118.652 5.52941 119.121 5.97697 119.454 6.54003V4.85084H123.698V17H119.454V15.3108C119.121 15.8739 118.645 16.3214 118.024 16.6535C117.418 16.9856 116.703 17.1516 115.88 17.1516C114.913 17.1516 114.032 16.8989 113.238 16.3936C112.459 15.8883 111.838 15.1664 111.376 14.228C110.928 13.2751 110.704 12.1707 110.704 10.9146ZM119.454 10.9146C119.454 10.135 119.237 9.52137 118.804 9.07381C118.385 8.62625 117.865 8.40247 117.245 8.40247C116.609 8.40247 116.082 8.62625 115.664 9.07381C115.245 9.50694 115.036 10.1205 115.036 10.9146C115.036 11.6942 115.245 12.315 115.664 12.777C116.082 13.2246 116.609 13.4484 117.245 13.4484C117.865 13.4484 118.385 13.2246 118.804 12.777C119.237 12.3295 119.454 11.7087 119.454 10.9146ZM128.174 17.1733C127.423 17.1733 126.817 16.9711 126.355 16.5669C125.908 16.1482 125.684 15.6212 125.684 14.986C125.684 14.3507 125.908 13.8237 126.355 13.4051C126.817 12.9864 127.423 12.777 128.174 12.777C128.911 12.777 129.502 12.9864 129.95 13.4051C130.412 13.8237 130.643 14.3507 130.643 14.986C130.643 15.6068 130.412 16.1265 129.95 16.5452C129.502 16.9639 128.911 17.1733 128.174 17.1733Z" fill="#332C2A"/>
</svg>
