<svg width="25" height="25" viewBox="0 0 25 25" fill="none" xmlns="http://www.w3.org/2000/svg">
<path d="M12.5 12.0773C10.7812 12.0773 9.375 11.5137 8.28125 10.3865C7.1875 9.25926 6.64062 7.80998 6.64062 6.03865C6.64062 4.26731 7.1875 2.81804 8.28125 1.69082C9.375 0.563607 10.7812 0 12.5 0C14.2188 0 15.625 0.563607 16.7188 1.69082C17.8125 2.81804 18.3594 4.26731 18.3594 6.03865C18.3594 7.80998 17.8125 9.25926 16.7188 10.3865C15.625 11.5137 14.2188 12.0773 12.5 12.0773ZM0 25V21.2158C0 20.1959 0.247396 19.3237 0.742187 18.599C1.23698 17.8744 1.875 17.3242 2.65625 16.9485C4.40104 16.1433 6.07422 15.5395 7.67578 15.1369C9.27734 14.7343 10.8854 14.533 12.5 14.533C14.1146 14.533 15.7161 14.741 17.3047 15.157C18.8932 15.573 20.5599 16.1702 22.3047 16.9485C23.112 17.3242 23.763 17.8744 24.2578 18.599C24.7526 19.3237 25 20.1959 25 21.2158V25H0ZM2.34375 22.5845H22.6562V21.2158C22.6562 20.7864 22.5326 20.3771 22.2852 19.9879C22.0378 19.5988 21.7318 19.3103 21.3672 19.1224C19.7005 18.2904 18.1771 17.7201 16.7969 17.4114C15.4167 17.1028 13.9844 16.9485 12.5 16.9485C11.0156 16.9485 9.57031 17.1028 8.16406 17.4114C6.75781 17.7201 5.23438 18.2904 3.59375 19.1224C3.22917 19.3103 2.92969 19.5988 2.69531 19.9879C2.46094 20.3771 2.34375 20.7864 2.34375 21.2158V22.5845ZM12.5 9.66184C13.5156 9.66184 14.3555 9.31964 15.0195 8.63527C15.6836 7.95089 16.0156 7.08535 16.0156 6.03865C16.0156 4.99195 15.6836 4.12641 15.0195 3.44203C14.3555 2.75765 13.5156 2.41546 12.5 2.41546C11.4844 2.41546 10.6445 2.75765 9.98047 3.44203C9.31641 4.12641 8.98438 4.99195 8.98438 6.03865C8.98438 7.08535 9.31641 7.95089 9.98047 8.63527C10.6445 9.31964 11.4844 9.66184 12.5 9.66184Z" fill="black"/>
</svg>
